<?xml version="1.0" encoding="utf-8"?>
<!-- Generator: Adobe Illustrator 18.1.1, SVG Export Plug-In . SVG Version: 6.00 Build 0)  -->
<svg version="1.1" id="Layer_1" xmlns="http://www.w3.org/2000/svg" xmlns:xlink="http://www.w3.org/1999/xlink" x="0px" y="0px"
	 viewBox="0 0 212.1 178.1" enable-background="new 0 0 212.1 178.1" xml:space="preserve">
<g id="desktop">
	<path fill="#D3D1D5" d="M129,172.1l-45.9,0l3.6-25.3h39L129,172.1z"/>
	<path fill="#C0BDC0" d="M131.4,178.1H80.5c-0.5,0-0.8-0.4-0.8-0.8c0-0.2,0-0.3,0.1-0.4l3.2-4.9c0.2-0.2,0.4-0.4,0.7-0.4h44.7
		c0.3,0,0.6,0.1,0.7,0.4l3,4.9c0.2,0.4,0.1,0.9-0.3,1.1C131.7,178.1,131.5,178.1,131.4,178.1z"/>
	<path fill="#49494A" d="M208.1,0H3.8C1.7,0,0,1.7,0,3.8c0,0,0,126.2,0,127.4h212c0-2.2-0.1-127.4-0.1-127.4
		C211.9,1.7,210.2,0,208.1,0z"/>
	<path fill="#FFFFFF" d="M200.4,10.8H11.7c-0.2,0-0.3,0.1-0.3,0.3v107.5c0,0.2,0.1,0.3,0.3,0.3h188.7c0.2,0,0.3-0.1,0.3-0.3V11.1
		C200.6,10.9,200.5,10.8,200.4,10.8z"/>
	<path fill="#EAE9EC" d="M208.5,148H3.9c-2.1,0-3.8-1.7-3.8-3.8c0,0,0-12.5,0-12.9h212c0,0.2,0,12.9,0,12.9
		C212.1,146.3,210.6,148,208.5,148z"/>
	<circle fill="#D5D4D7" cx="106.1" cy="139.6" r="3.3"/>
	<circle fill="#646465" cx="106.1" cy="5.5" r="1.3"/>
</g>
</svg>
