<?xml version="1.0" encoding="utf-8"?>
<!-- Generator: Adobe Illustrator 18.1.1, SVG Export Plug-In . SVG Version: 6.00 Build 0)  -->
<svg version="1.1" id="Layer_1" xmlns="http://www.w3.org/2000/svg" xmlns:xlink="http://www.w3.org/1999/xlink" x="0px" y="0px"
	 viewBox="0 0 40 40" enable-background="new 0 0 40 40" xml:space="preserve">
<g>
	<path fill="#FFFFFF" d="M26.7,19.4L15.6,8.3c-0.2-0.2-0.3-0.3-0.6-0.3c-0.2,0-0.4,0.1-0.6,0.3l-1.2,1.2C13.1,9.7,13,9.8,13,10.1
		c0,0.3,0.1,0.4,0.3,0.6l9.4,9.4l-9.4,9.4c-0.2,0.2-0.3,0.3-0.3,0.6c0,0.2,0.1,0.4,0.3,0.6l1.2,1.2c0.2,0.1,0.4,0.3,0.6,0.3
		s0.4-0.1,0.6-0.3l11.1-11.1c0.2-0.2,0.3-0.3,0.3-0.6C27,19.8,26.8,19.6,26.7,19.4z"/>
</g>
</svg>
